<?xml version="1.0" standalone="no"?><!DOCTYPE svg PUBLIC "-//W3C//DTD SVG 1.1//EN" "http://www.w3.org/Graphics/SVG/1.1/DTD/svg11.dtd"><svg t="1531638603758" class="icon" style="" viewBox="0 0 1024 1024" version="1.1" xmlns="http://www.w3.org/2000/svg" p-id="804" xmlns:xlink="http://www.w3.org/1999/xlink" width="200" height="200"><defs><style type="text/css"></style></defs><path d="M555.9 532.2s78.8-73.5 105.7-191.1c26.9-117.5-9.7-176.8-54.3-187.1s-54.1 86.3-54.1 86.3c-14.4-79-66.3-163.6-141.8-123.3s-40.1 138-15.8 190.5c-32.4-33.1-107.2-60.7-132.9-23.1-25.7 37.6 1.5 96.4 58.2 137.7 61.1 44.5 111 62.4 163.6 76.4s69.3 39.3 69.3 39.3c25.5 191.3-20 380-20 380M637.7 646.3s191 28.1 210.6-7.5-23.5-37-49.9-41.3c0 0 105.1-60.4 87.1-106s-59.7-41-119.5 8c0 0 14.3-60.7-12.4-60.7s-44.4 36-67.1 106.2c-16.9 52.4-48.8 101.3-48.8 101.3z" fill="#6CD32A" p-id="805"></path><path d="M450.1 696.9S349.8 505.5 318.9 500.1c-31-5.4-16 40.6-3.4 68.1 0 0-128.4-64.7-160.6-12s11 89.8 94.8 119.1c0 0-96.7 11.5-68.2 43.2s70.6 20.5 142.5-2.8c58-18.9 126.1-18.8 126.1-18.8z" fill="#6CD32A" p-id="806"></path></svg>