<?xml version="1.0" standalone="no"?><!DOCTYPE svg PUBLIC "-//W3C//DTD SVG 1.1//EN" "http://www.w3.org/Graphics/SVG/1.1/DTD/svg11.dtd"><svg t="1531638623532" class="icon" style="" viewBox="0 0 1024 1024" version="1.1" xmlns="http://www.w3.org/2000/svg" p-id="921" xmlns:xlink="http://www.w3.org/1999/xlink" width="200" height="200"><defs><style type="text/css"></style></defs><path d="M700.7 640.1c-65.8 83.8-112.6 240.6-112.6 240.6s-40.6 16.7-106.6 7.1c-76.9-11.2-97.4-44.2-97.4-44.2s-18.3-185.3-57-243.4l27.6-43.2 37.9 25.4L424 679l5.5-96.6 37.7-10.9L503 619l10 138 35.6-79.4 86.7-98.4 65.4 60.9z" fill="#E7FF3B" p-id="922"></path><path d="M481.5 246.4s-5.7-49.3-49.1-59.8c-57.1-13.9-95.2 51.6-95.2 51.6s-48-75.9-117.3-36.5c-83 47.1-36.3 128-36.3 128S93 334.3 92 420.5s91.6 79.6 91.6 79.6-23.5 86.8 53.5 118c66.3 26.9 119.7-58.8 119.7-58.8s41.2 52.6 107.1 8.7" fill="#428E11" p-id="923"></path><path d="M503.8 619.8c66.2 40.3 135.5-45.3 135.5-45.3s45.1 89.6 124.8 65.5c72.7-22 62.3-110 62.3-110s98.9 1.3 105.9-86.5c8.1-102-87.7-97.7-87.7-97.7s43.7-96.8-35.2-141.7S680.1 249 680.1 249c-6.8-17.5-51.3-116.6-136.8-84-85.4 32.6-60.9 142.2-60.9 142.2s-127.7-14.9-127.7 99c0 84 119.2 87.1 119.2 87.1s-36.4 86.1 29.9 126.5z" fill="#61AF2F" p-id="924"></path><path d="M737.1 657.1c-26.3 0-51.5-10.5-74.1-31.2-11.3-10.3-19.9-21.3-25.9-30-8.1 8-19.7 18.3-33.8 27.3-38 24.3-74.7 26.9-106.3 7.6-31.3-19.1-47.3-50.2-46.1-89.9 0.4-14.1 2.9-26.8 5.4-36.3-12.2-1.6-29.4-4.8-46.8-11.4-44.5-16.8-68-47-68-87.2 0-35.1 11.1-62.8 33.1-82.3 29.2-26 69.9-30.2 92.5-30.3-1.2-11.8-1.9-28.8 0.8-47.1 6.7-46.1 31.1-78.5 70.7-93.6 40.8-15.5 79.4-6.5 111.8 26.2 14.3 14.5 25 31.2 31.9 44.3 12.3-14.8 32.6-34 59.7-41.6 24.2-6.7 49-3 73.7 11 36.7 20.9 55.3 55.3 53.8 99.5-0.6 16.4-3.9 31.1-7 41.8 16.3 2.4 40.1 9.1 58.2 27.9 19 19.7 27.3 47.5 24.5 82.6-3.3 41.1-25.2 71.3-63.5 87.2-15.8 6.6-31.2 9.3-41.8 10.5 0 9.6-1 23.3-4.8 37.8-9.7 37-32.9 62-67.2 72.4-10.4 3.3-20.7 4.8-30.8 4.8z m-95.3-106.4l9 18c0.1 0.2 10.8 21 30.2 38.5 24.4 22 51.1 28.9 79.2 20.3 61.6-18.7 53.2-95.2 53.2-96l-1.7-14.7 14.8 0.2c0.2 0 23 0.1 45.9-9.6 28.7-12.2 44.5-34 46.9-65 2.2-27.3-3.6-48.2-17.1-62.3-21.5-22.4-56.7-21.4-57.1-21.3l-21 0.8 8.6-19.1c0.1-0.2 10.1-22.8 10.9-49.9 1-34-12.7-59.3-40.7-75.2-18.4-10.5-36.5-13.4-53.8-8.6-35.4 9.8-57.5 48.2-57.7 48.6l-13.5 23.8-10-25.4c-4.3-10.9-43.9-105.6-120-76.6-74 28.2-53.1 126.2-52.9 127.2l4 17.9-18.2-2.1c-0.5-0.1-56.2-6-89 23.3-16.1 14.4-24.3 35.5-24.3 62.8 0 28.7 17 49.8 50.6 62.7 27.4 10.5 55.6 11.4 55.9 11.4l19 0.5-7.3 17.5c-0.1 0.2-8.3 20.2-8.9 44.2-0.7 29.9 10.6 52.2 33.7 66.3 10.2 6.2 20.7 8.8 31 8.8 45.6 0 87.1-50.5 87.6-51.1l12.7-15.9z" fill="" p-id="925"></path><path d="M263.4 636.2c-10.5 0-20.9-2.1-31.1-6.2-36-14.6-58-42.6-63.6-80.9-2.1-14-1.5-27-0.4-36.5-17-1.4-43.8-6.8-63.8-25.7-17.2-16.2-25.7-38.7-25.4-66.8 0.6-50.9 29.2-76.5 53.1-89.1 11.8-6.2 23.5-9.7 32.8-11.8-5.6-15.6-11.1-40.2-4.1-66.1 7-25.9 24.7-47 52.6-62.9 33-18.7 67-17.3 98.4 4 10.4 7.1 18.8 15.2 24.8 22 4.6-5.8 10.7-12.6 18.1-19 25.1-22.1 53-30.2 80.7-23.4 51.6 12.6 58.7 68.6 58.9 71 0.8 7.1-4.3 13.6-11.4 14.4-7.1 0.8-13.6-4.3-14.4-11.4-0.2-1.9-5.5-40.5-39.3-48.7-46.9-11.4-80.5 44.9-80.9 45.5L337.6 263l-11.4-18c-1.7-2.6-42.3-64.9-99.9-32.1-29.5 16.8-43.9 39.9-42.7 68.9 0.9 22.8 11.2 41.1 11.3 41.3l10.4 18.3-21.1 1.1c-3.2 0.2-78.4 5.3-79.3 77.9-0.2 20.5 5.6 36.5 17.2 47.5 22.3 21 60.1 19 60.4 19l18.2-1.3-4.8 17.6c-0.8 3.1-19.3 76.1 45.9 102.6 55.5 22.5 103.3-52.8 103.8-53.6l9.8-15.8 11.4 14.6s9 11.1 24.5 17.2c20.1 7.9 42 4.1 65.2-11.3 6-4 14-2.4 18 3.6s2.4 14-3.6 18c-38.8 25.8-70.6 21.5-90.4 13.3-9.1-3.7-16.5-8.6-22-13.1-6.5 8.3-16.2 19.5-28.5 29.7-21.7 18.5-44.3 27.8-66.6 27.8z" fill="" p-id="926"></path><path d="M521.7 903.7c-12.6 0-26.7-0.9-42.1-3.1-80.6-11.7-104.2-46.3-106.6-50.2-1.1-1.7-1.7-3.6-1.9-5.6-0.2-1.8-18.4-182.8-54.9-237.4-4-6-2.4-14 3.6-18s14-2.4 18 3.6c37.4 56 55.9 217.9 58.8 245.5 5.9 6.6 28.9 27.9 86.8 36.3 47.8 6.9 81.6-0.7 94.3-4.5 9.7-31 53.1-162.4 112.8-238.4 4.4-5.6 12.6-6.6 18.3-2.2s6.6 12.6 2.2 18.3c-63.6 81-110 234.8-110.4 236.3-1.1 3.8-3.9 6.8-7.5 8.3-1.4 0.6-27.6 11.1-71.4 11.1z" fill="" p-id="927"></path><path d="M513.7 773.8h-0.1c-2.5-0.1-4.6-2-4.9-4.5-6.4-63.5-9.9-148.5-9.9-149.3-0.1-2.8 2-5.1 4.8-5.2 2.7-0.1 5.1 2 5.2 4.8 0 0.7 2.5 61.9 7.2 119 2.2-7.1 5-15.2 8.5-23.9 11.2-27.6 32.2-66.9 68.6-97 2.1-1.8 5.3-1.5 7 0.7 1.8 2.1 1.5 5.3-0.7 7-66.7 55.1-80.7 143.3-80.8 144.2-0.3 2.4-2.4 4.2-4.9 4.2zM424.9 708.9c-2.5 0-4.6-1.9-5-4.4-6-48.6-31.9-119.7-32.2-120.4-0.9-2.6 0.4-5.5 3-6.4 2.6-1 5.5 0.4 6.4 3 0.8 2.2 14.6 40 24.4 79.7l2.9-78.1c0.1-2.8 2.4-4.9 5.2-4.8 2.8 0.1 4.9 2.4 4.8 5.2l-4.5 121.5c-0.1 2.6-2.2 4.7-4.8 4.8 0-0.1-0.1-0.1-0.2-0.1z" fill="" p-id="928"></path></svg>